<svg xmlns="http://www.w3.org/2000/svg" width="94.06" height="20.092" viewBox="0 0 94.06 20.092">
  <g id="그룹_581" data-name="그룹 581" transform="translate(-617.905 -12711.534)">
    <path id="패스_308" data-name="패스 308" d="M960.379,54.237V47.3h1.8v6.938c0,3.254,1.882,5.029,4.76,5.029s4.76-1.774,4.76-5.029V47.3h1.8v6.938c0,4.41-2.635,6.7-6.561,6.7s-6.562-2.286-6.562-6.7" transform="translate(-326.85 12670.542)" fill="#24cd88"/>
    <path id="패스_309" data-name="패스 309" d="M981.257,59.132,990.8,48.913h-9.143V47.3h11.564v1.452L983.678,58.97h9.816v1.614H981.257Z" transform="translate(-333.62 12670.542)" fill="#24cd88"/>
    <path id="패스_310" data-name="패스 310" d="M1000.844,59.132l9.547-10.219h-9.143V47.3h11.564v1.452l-9.547,10.219h9.815v1.614h-12.236Z" transform="translate(-339.972 12670.542)" fill="#24cd88"/>
    <path id="패스_311" data-name="패스 311" d="M944.652,44.162a6.744,6.744,0,0,0-3.39.855l-.014.007-.078.047h0l-.021.014a8.409,8.409,0,0,0-2.09,1.766V38.7h-1.8v12.37a6.754,6.754,0,0,0,7.1,7.073,6.843,6.843,0,0,0,7.181-7.046,6.7,6.7,0,0,0-6.885-6.938m-.269,12.317a5.325,5.325,0,1,1,5.325-5.325,5.1,5.1,0,0,1-5.325,5.325" transform="translate(-319.352 12673.33)" fill="#24cd88"/>
    <path id="제외_1" data-name="제외 1" d="M495.7,10149.847H469.685v-9.547a9.557,9.557,0,0,1,9.547-9.545H495.7a9.546,9.546,0,0,1,0,19.092Zm-15.215-15.788a6.45,6.45,0,0,0-2.453.461,5.9,5.9,0,0,0-1.954,1.289,6.023,6.023,0,0,0-1.3,1.975,6.511,6.511,0,0,0-.471,2.5,6.581,6.581,0,0,0,.471,2.52,6.152,6.152,0,0,0,1.3,1.981,5.86,5.86,0,0,0,1.954,1.3,6.8,6.8,0,0,0,4.921,0,5.861,5.861,0,0,0,1.951-1.3,5.946,5.946,0,0,0,1.284-1.981,6.776,6.776,0,0,0,.456-2.52,6.7,6.7,0,0,0-.456-2.5,5.758,5.758,0,0,0-3.235-3.264A6.51,6.51,0,0,0,480.485,10134.059Zm10.479,4.855,0,0,4.214,7.328h2.932v-11.873H495.18v7.193l-4.216-7.193h-2.932v11.873h2.932v-7.331ZM480.485,10144a3.174,3.174,0,0,1-1.332-.275,2.968,2.968,0,0,1-1.021-.77,3.513,3.513,0,0,1-.657-1.169,4.605,4.605,0,0,1-.232-1.5,4.455,4.455,0,0,1,.232-1.459,3.573,3.573,0,0,1,.657-1.162,2.966,2.966,0,0,1,1.021-.767,3.36,3.36,0,0,1,2.664,0,2.965,2.965,0,0,1,1.021.767,3.515,3.515,0,0,1,.655,1.162,4.386,4.386,0,0,1,.234,1.459,4.535,4.535,0,0,1-.234,1.5,3.458,3.458,0,0,1-.655,1.169,2.967,2.967,0,0,1-1.021.77A3.174,3.174,0,0,1,480.485,10144Z" transform="translate(206.221 2581.279)" fill="#24cd88" stroke="rgba(0,0,0,0)" stroke-miterlimit="10" stroke-width="1"/>
  </g>
</svg>
