<svg id="Layer_1" data-name="Layer 1" xmlns="http://www.w3.org/2000/svg" viewBox="0 0 135 132.27"><defs><style>.cls-1{fill:#24cd88;}.cls-2{fill:#fff;}</style></defs><path class="cls-1" d="M68.87,0H66.13A66.13,66.13,0,0,0,0,66.13V122c0,6,3.85,10.23,10.29,10.23H67.78c36.26,0,66.6-28.74,67.21-65A66.13,66.13,0,0,0,68.87,0Z"/><path class="cls-2" d="M70,46.84a30.34,30.34,0,0,0-15,3.78l-.58.34c-.91.55-1.81,1.14-2.68,1.77V25.48H37.47v52c0,18.44,12.92,31.31,31.41,31.31s31.73-13.12,31.73-31.2C100.61,59.78,87.75,46.84,70,46.84Zm16.14,31C86.18,88,79.11,95,69,95c-10.29,0-17.2-6.91-17.2-17.19S58.7,60.63,69,60.63C79.11,60.63,86.18,67.7,86.18,77.83Z"/></svg>