<?xml version="1.0" encoding="utf-8"?>
<!-- Generator: Adobe Illustrator 26.2.1, SVG Export Plug-In . SVG Version: 6.00 Build 0)  -->
<svg version="1.1" id="Layer_1" xmlns="http://www.w3.org/2000/svg" xmlns:xlink="http://www.w3.org/1999/xlink" x="0px" y="0px"
	 viewBox="0 0 17 17" style="enable-background:new 0 0 17 17;" xml:space="preserve">
<style type="text/css">
	.st0{fill:#313131;}
</style>
<path id="Icon_ionic-ios-list-box" class="st0" d="M0,1.4v14.2C0,16.4,0.6,17,1.4,17h14.2c0.8,0,1.4-0.6,1.4-1.4V1.4
	C17,0.6,16.4,0,15.6,0H1.4C0.6,0,0,0.6,0,1.4C0,1.4,0,1.4,0,1.4z M3.6,13.6c-0.4,0.1-0.9-0.3-0.9-0.7C2.7,12.4,3,12,3.4,11.9
	s0.9,0.3,0.9,0.7c0,0.1,0,0.1,0,0.2C4.3,13.2,4,13.5,3.6,13.6z M3.6,9.3C3.2,9.4,2.8,9.1,2.7,8.6C2.7,8.2,3,7.7,3.4,7.7
	c0.4-0.1,0.9,0.3,0.9,0.7c0,0.1,0,0.1,0,0.2C4.3,9,4,9.3,3.6,9.3z M3.6,5.1C3.2,5.1,2.8,4.8,2.7,4.4C2.7,3.9,3,3.5,3.4,3.4
	c0.4-0.1,0.9,0.3,0.9,0.7c0,0.1,0,0.1,0,0.2C4.3,4.7,4,5,3.6,5.1z M13.8,13.3H6.4c-0.3,0-0.6-0.3-0.6-0.6l0,0c0-0.3,0.3-0.6,0.6-0.6
	h7.4c0.3,0,0.6,0.3,0.6,0.6l0,0C14.3,13.1,14.1,13.3,13.8,13.3z M13.8,9.1H6.4c-0.3,0-0.6-0.3-0.6-0.6l0,0c0-0.3,0.3-0.6,0.6-0.6
	h7.4c0.3,0,0.6,0.3,0.6,0.6l0,0C14.3,8.8,14.1,9.1,13.8,9.1z M13.8,4.8H6.4c-0.3,0-0.6-0.3-0.6-0.6l0,0c0-0.3,0.3-0.6,0.6-0.6h7.4
	c0.3,0,0.6,0.3,0.6,0.6l0,0C14.3,4.6,14.1,4.8,13.8,4.8C13.8,4.8,13.8,4.8,13.8,4.8L13.8,4.8z"/>
</svg>
